<svg id="图层_8" data-name="图层 8" xmlns="http://www.w3.org/2000/svg" viewBox="0 0 772.57 94.57"><defs><linearGradient id="linear-gradient" x1="191.44" y1="245.59" x2="581.23" y2="-144.21" gradientUnits="userSpaceOnUse"><stop offset="0" stop-color="#faaca8"/><stop offset="1" stop-color="#ddd6f3"/></linearGradient><linearGradient id="linear-gradient-2" x1="136.46" y1="47.39" x2="154.38" y2="47.39" gradientUnits="userSpaceOnUse"><stop offset="0" stop-color="#ff9a9e"/><stop offset="1" stop-color="#fad0c4"/></linearGradient><linearGradient id="linear-gradient-3" x1="626.46" y1="47.39" x2="644.38" y2="47.39" gradientUnits="userSpaceOnUse"><stop offset="0" stop-color="#ddd6f3"/><stop offset="1" stop-color="#ddd6f3"/></linearGradient><style>.cls-2{fill:#fff}</style></defs><path d="M533.25 63.37c-1.82-1.86-2.13-5-.75-8 .37-.81.85-1.58 1.44-2.67h-2.63c-11.16 0-22.31.05-33.47 0a4.44 4.44 0 00-4.07 2.11c-5.09 6.83-11.4 12-20 13.78 8.41-2.81 14.69-8.25 19.89-15.84-2.86.35-5.72-1.27-7.36 2v-2c-7.53 0-14.85 0-22.17.07-.76 0-1.67.86-2.24 1.55-2.61 3.16-7.74 3.7-9.73.49-1.82-2.95-4-2-6.4-2v1.21c.73 7.94 8.1 14.35 17.05 14.39 3.43 0 6.87-.86 10.31-1.34-10.85 5.44-27.82 1.4-29.3-14.4h-12.14a5 5 0 00-2 .9c-1.95 1.11-3.94 2.17-5.8 3.41-5.1 3.41-10.49 3.12-16 1.47a37.85 37.85 0 00-7-1.7c2 1.08 3.91 2.29 6 3.23 6.36 2.97 10.12 7.73 11.19 14.76.44 2.93 1.33 5.78 2.05 8.84-11.51-1.13-21.58-3.95-25.93-16a6.25 6.25 0 00-1.69-2.49c.87 3.26 1.67 6.54 2.65 9.76a13 13 0 01-1 10.61c-2.31 4.11-4.7 8.18-7 12.26h-1c-2.7-5-5.61-10-8-15.11-1.58-3.35-.2-6.88.64-10.25.62-2.46 1.47-4.87 2-7.41-3.17 4.88-4.92 10.91-10.11 14.06s-11.06 3.75-17.32 4.75c1.5-6.15 1.95-12.28 5.11-17.55 1.09-1.82 3.13-3.2 5-4.4 2.77-1.81 5.76-3.3 8.85-5-3.91.88-7.6 1.69-11.27 2.54A12.85 12.85 0 01351 57.74c-2.47-1.53-5-3-7.51-4.43a3.68 3.68 0 00-1.59-.61c-3.65-.06-7.3 0-11.08 0-.73 8.2-4.81 13.8-12.56 16.07A21.89 21.89 0 01298 65.19c.74.35 1.5.66 2.22 1a21.87 21.87 0 0016.16 1.94c7.46-1.83 12.94-8.61 12.37-15.93-1.77.48-4.48.48-4.92 1.48-2.09 4.73-9.07 4.68-11.6.15a2.79 2.79 0 00-2-1.18c-6.73-.08-13.47-.07-20.2 0-.53 0-1.06.51-1.59.79l-6.58-1.14-.24.75c5 7.5 11.51 13.07 20.24 15.89-7.14-1.35-12.82-5.16-17.61-10.47a4.16 4.16 0 01-.64-.76c-2.29-4.53-6-5.41-10.85-5.21-9.49.38-19 .11-28.5.11h-2.68c2.45 3.86 4.16 7.55 1 11.55 2.14-7.6-.59-11.71-7.74-11.51-.87 0-2.25.43-2.49 1-.41 1-.11 2.35-.11 3.55.92-1.47 1.81-2.27 3.24-1.48.49.27.54 1.34.79 2-1 .31-2.09 1-3 .82a3.35 3.35 0 01-2.07-1.92 16.24 16.24 0 01-.49-3.93h-12.46a20.73 20.73 0 005.26 10.34c6 6.42 12.74 6.77 19.06 1-1.77 4.31-7.78 6.09-12.67 4.73-7.24-2-11.26-7.28-13.81-14-.26-.68-.46-1.4-.7-2.14H16.1c-.36.72-.67 1.4-1 2.05a7.72 7.72 0 01-8.84 4A8.38 8.38 0 010 50.43a8.14 8.14 0 015.8-7.6c3.87-1 7.6.41 9.25 4 .78 1.7 1.75 2 3.41 2q96.85-.06 193.71 0h2.22c.74-3.51 1-7 2.2-10.08 4.41-11.75 16.9-18.28 29.3-15.81 11.5 2.3 20 8.89 27 18 .85 1.12 1.67 2.27 2.5 3.42 3.61 5 4 5.16 10 4.28.59-4.13.79-8.2 1.82-12a15.24 15.24 0 017.71-9.71c4.51-2.38 9.11-2.57 13.46.42a7.81 7.81 0 013.44 7.81 6.87 6.87 0 01-4.94 5.75 5.91 5.91 0 01-6-1.25 4.5 4.5 0 01-1.71-4.66c.49-2.42 2.89-4.11 5-3.3.72.28 1.25 1.14 1.74 1.83.07.11-.74 1.06-.8 1a23.24 23.24 0 01-2.29-1.64c-1.38.16-2.25 1.29-2.25 3.1 0 2.06 1.43 3 3.19 3.21a5.41 5.41 0 005.44-2.8c1.27-2 .75-4-.49-5.85-2-2.9-6.23-4.12-10.1-3-6.91 2-10.21 7.11-11.45 13.74-.44 2.32-.07 4.79-.07 7.53h6.77c4.83 0 9.67-.09 14.5 0 2 0 3.71-.06 4.69-2.08v2.62a24.09 24.09 0 014.29-1.83c1.49-.31 3.66-.77 4.52 0 2 1.72 3.89 1.16 6.24 1.18a9 9 0 00-6.24-4.84c-3.61-.78-6.44.46-8.9 3 3.27-6.08 12.41-6.13 16 0a3.51 3.51 0 003.52 2c5.74 0 11.34.34 16.3-3.68 5.32-4.32 11.48-4.22 17.72-2a21.31 21.31 0 003.5.81c-4.32-3.14-10.08-4.78-12.2-10.21-2-5.08-3.19-10.45-5-16.48 3.56.75 6.32 1.5 9.12 1.89 7.84 1.08 13 5.37 16 12.61a21.47 21.47 0 002.63 4.73c-1-5.75-4.63-11.34-2.57-17.13C379.94 14 383.29 9 386.33 3.23c4.06 5.74 8.15 10.69 9 16.77.59 4-1.18 8.42-2 12.63a25.92 25.92 0 01-1.14 3.46l.56.3c.41-.7.81-1.41 1.23-2.11 1.7-2.86 3.1-6 5.2-8.48a16.12 16.12 0 016.49-4.8c4.49-1.63 9.25-2.48 14.34-3.76-1 6.34-1.71 12.29-4.71 17.39-3.13 5.31-9.21 7-14.15 10.17 3.55-.91 7.11-1.8 10.65-2.74a13.25 13.25 0 0111 1.79 12.56 12.56 0 011.72 1c5.48 5 12.19 4 18.7 3.87a2.49 2.49 0 001.73-1.29c1.81-3.72 4.62-5.83 8.82-5.82a9.47 9.47 0 019.23 6 2.21 2.21 0 001.56 1.13c7.08.07 14.17.05 21.25.05h1.9c3.13-9.31-2.48-19.93-11.59-22.28-4.68-1.21-9.33.94-10.75 4.9a4.65 4.65 0 001.29 5.22 5.44 5.44 0 005.74 1.47 3.17 3.17 0 001.31-5.28c-.77-.75-1.8-2-2.5.23-.09.29-1 .29-1.59.43 0-.66-.35-1.5-.06-1.93 1-1.56 4.06-1.47 5.16.42a7.36 7.36 0 01.89 4.84c-.44 2.05-2.32 3.15-4.46 3.46a7.17 7.17 0 01-7.65-4.37c-1.26-3 0-7.24 2.8-9.43 4.83-3.8 12.94-2.93 17.47 2.09a21.39 21.39 0 015.36 18.74c0 .24-.1.49-.12.74a5.35 5.35 0 00.15.74 56.5 56.5 0 006.37-.08c.79-.09 1.6-1 2.18-1.69 3.9-4.76 7.34-10 11.67-14.26 7.2-7.16 16-11.23 26.4-11.15a25.55 25.55 0 0125.63 24.76v2.43h192.65c1.48 0 2.67.14 3.51-1.77a7.64 7.64 0 019.17-4.22 7.89 7.89 0 015.83 7.53 8.24 8.24 0 01-5.82 8.37 7.63 7.63 0 01-8.92-3.8c-1-2.07-2.35-2.27-4.29-2.27q-95 .06-190 0c-2.17 0-3 .6-3.82 2.7-2.5 6.49-6.79 11.41-13.81 13.33-4.27 1.16-9-.15-10.84-2.92 9.61 5.13 21-1.36 22.63-12.9h-12.33c.2 3.74-1.25 5.8-3.87 5.46a2.56 2.56 0 01-1.75-1.33 2 2 0 01.94-1.67 3.5 3.5 0 012.18.4c.29.11.4.68.68 1.24 1.23-3.57.8-4.25-2.43-4.26a22.94 22.94 0 01-3 0c-1.94-.27-3.12.7-4.12 2.17a8.89 8.89 0 00-.75 8.52z" transform="translate(0 -3.23)" fill="url(#linear-gradient)"/><path class="cls-2" d="M498.26 48.61h60.35a46.92 46.92 0 00-.38-5.35C555.8 30 541.85 21.48 528 24.46s-22.22 12.76-29.74 24.15zm-221.15.03c-3.52-4.33-6.39-8.39-9.78-12-7.51-7.87-16.57-12.51-27.77-11.56a23.53 23.53 0 00-18.17 10.4 19.9 19.9 0 00-3.64 13.11z" transform="translate(0 -3.23)"/><path d="M386.56 42.66a8 8 0 00-8 7.81c.05 4.88 3.56 8.47 8.25 8.43a8.34 8.34 0 008.19-8.28 8.13 8.13 0 00-8.44-7.96zM462 48.61c-.24-3.31-2.44-5.4-5.84-5.65-4.79-.36-8.43 1.85-9.39 5.71 2.24.25 4.3.41 6-1.76 1.13-1.45 4.12-1.23 5.07.31 1.02 1.78 2.33 1.78 4.16 1.39zm-148.6 4.12c1.36 2 2.93 2.82 5 2.66 1.67-.13 3.21-.54 3.65-2.66zm147.13.06h-7.65c1.83 2.85 5.12 2.84 7.65 0z" transform="translate(0 -3.23)"/><path class="cls-2" d="M288.35 53.48c.53-.28 1.06-.79 1.59-.79 6.73-.06 13.47-.07 20.2 0a2.79 2.79 0 012 1.18c2.53 4.53 9.51 4.58 11.6-.15.44-1 3.15-1 4.92-1.48.57 7.32-4.91 14.1-12.37 15.93a21.87 21.87 0 01-16.16-1.94c-.72-.39-1.48-.7-2.22-1-4.17-3.11-7.91-6.54-9.56-11.75zm184.77 13.58c-3.44.48-6.88 1.36-10.31 1.34-8.95 0-16.32-6.45-17.05-14.39V52.8c2.37 0 4.58-1 6.4 2 2 3.21 7.12 2.67 9.73-.49.57-.69 1.48-1.54 2.24-1.55 7.32-.11 14.64-.07 22.17-.07v2a27.71 27.71 0 01-13.18 12.37zm-230.55-2.95c-6.32 5.79-13.07 5.44-19.06-1a20.73 20.73 0 01-5.26-10.34h12.34a16.24 16.24 0 00.49 3.93 3.35 3.35 0 002.07 1.92c.94.16 2-.51 3-.82-.25-.7-.3-1.77-.79-2-1.43-.79-2.32 0-3.24 1.48 0-1.2-.3-2.51.11-3.55.24-.59 1.62-1 2.49-1 7.15-.2 9.88 3.91 7.74 11.51zm143.99-21.45a8.13 8.13 0 018.4 8 8.34 8.34 0 01-8.18 8.28c-4.69 0-8.2-3.55-8.25-8.43a8 8 0 018.03-7.85zM462 48.61c-1.81.34-3.12.36-4.18-1.39-.95-1.54-3.94-1.76-5.07-.31-1.68 2.17-3.74 2-6 1.76 1-3.86 4.6-6.07 9.39-5.71 3.4.25 5.6 2.34 5.86 5.65zm-149.19-1.79c2.46-2.51 5.29-3.75 8.9-3a9 9 0 016.29 4.87c-2.35 0-4.28.54-6.24-1.18-.86-.75-3-.29-4.52 0a24.09 24.09 0 00-4.29 1.83v-2.62z" transform="translate(0 -3.23)"/><path class="cls-2" d="M313.4 52.73h8.69c-.44 2.12-2 2.53-3.65 2.66-2.11.16-3.68-.71-5.04-2.66zm147.13.06c-2.5 2.84-5.82 2.85-7.65 0z" transform="translate(0 -3.23)"/><circle cx="145.42" cy="47.39" r="8.96" fill="url(#linear-gradient-2)"/><circle cx="635.42" cy="47.39" r="8.96" fill="url(#linear-gradient-3)"/></svg>